<svg width="211" height="39" viewBox="0 0 211 39" fill="none" xmlns="http://www.w3.org/2000/svg">
<path d="M73.3203 29.5527C73.3203 29.6882 73.2695 29.7812 73.168 29.832C73.0833 29.8828 73.0664 30.0013 73.1172 30.1875C72.9818 30.2044 72.8633 30.2721 72.7617 30.3906C72.6602 30.5091 72.5417 30.5684 72.4062 30.5684C72.3216 30.5684 72.2539 30.526 72.2031 30.4414C72.1693 30.5599 72.1016 30.6445 72 30.6953C71.9154 30.7461 71.8223 30.7884 71.7207 30.8223C71.6191 30.8561 71.5176 30.8984 71.416 30.9492C71.3145 31 71.2467 31.0762 71.2129 31.1777H71.0859C70.8828 31.1777 70.722 31.2624 70.6035 31.4316C70.502 31.6009 70.375 31.6855 70.2227 31.6855C70.1719 31.6855 70.138 31.6771 70.1211 31.6602C70.0365 31.6771 70.0026 31.7279 70.0195 31.8125C70.0365 31.9141 70.0111 31.9818 69.9434 32.0156H69.8164C69.3763 32.0156 68.9277 32.1087 68.4707 32.2949C68.0137 32.4811 67.5482 32.6927 67.0742 32.9297C66.6172 33.1667 66.1432 33.3867 65.6523 33.5898C65.1784 33.8099 64.696 33.9538 64.2051 34.0215C64.1035 34.123 63.9766 34.1992 63.8242 34.25C63.6888 34.3177 63.5365 34.3685 63.3672 34.4023C63.1979 34.4362 63.0286 34.4701 62.8594 34.5039C62.707 34.5547 62.5716 34.6309 62.4531 34.7324C62.0299 34.7663 61.6068 34.8424 61.1836 34.9609C60.7604 35.0794 60.3372 35.1895 59.9141 35.291C59.5078 35.4095 59.0846 35.5026 58.6445 35.5703C58.2214 35.6549 57.7897 35.6803 57.3496 35.6465C57.2142 35.748 57.0618 35.8242 56.8926 35.875C56.7402 35.9427 56.5964 36.0273 56.4609 36.1289C55.7669 36.0273 55.0729 35.9512 54.3789 35.9004C53.7018 35.8496 53.0332 35.7311 52.373 35.5449C52.373 35.4941 52.3561 35.4603 52.3223 35.4434C52.2884 35.4264 52.2461 35.4095 52.1953 35.3926C52.1615 35.3926 52.1276 35.3757 52.0938 35.3418C52.0599 35.3249 52.0599 35.2826 52.0938 35.2148C51.9414 35.2656 51.806 35.291 51.6875 35.291C51.5182 35.291 51.349 35.2487 51.1797 35.1641C51.0273 35.0794 50.8581 34.9863 50.6719 34.8848C50.5026 34.7832 50.3249 34.6816 50.1387 34.5801C49.9525 34.4954 49.7493 34.4531 49.5293 34.4531C49.3939 34.3177 49.2669 34.1823 49.1484 34.0469C49.0469 33.9115 48.9707 33.7422 48.9199 33.5391C48.8522 33.5221 48.776 33.5221 48.6914 33.5391C48.6237 33.556 48.5645 33.5645 48.5137 33.5645C48.4121 33.5645 48.3613 33.5306 48.3613 33.4629C48.0059 33.209 47.752 32.9382 47.5996 32.6504C47.4473 32.3626 47.278 32.0326 47.0918 31.6602C47.041 31.5417 46.9733 31.4401 46.8887 31.3555C46.821 31.2878 46.7702 31.2031 46.7363 31.1016C46.6686 30.9323 46.6263 30.7546 46.6094 30.5684C46.5924 30.3822 46.5755 30.2044 46.5586 30.0352C46.5586 29.849 46.5332 29.6712 46.4824 29.502C46.4486 29.3158 46.3724 29.1465 46.2539 28.9941C46.2878 28.3509 46.3555 27.7077 46.457 27.0645C46.5755 26.4212 46.7194 25.778 46.8887 25.1348C46.9564 24.847 47.0326 24.5677 47.1172 24.2969C47.2018 24.026 47.278 23.7467 47.3457 23.459C47.3626 23.3574 47.388 23.2897 47.4219 23.2559C47.4727 23.2051 47.515 23.1712 47.5488 23.1543L47.6504 23.0781C47.6842 23.0443 47.7096 22.9935 47.7266 22.9258L47.9297 22.0625C48.0651 21.5039 48.2428 20.9622 48.4629 20.4375C48.6829 19.9128 48.9792 19.4303 49.3516 18.9902C49.3854 18.5671 49.4785 18.1693 49.6309 17.7969C49.8001 17.4076 49.9863 17.0352 50.1895 16.6797C50.3926 16.3073 50.5957 15.9434 50.7988 15.5879C51.002 15.2324 51.1628 14.8516 51.2812 14.4453L51.2559 14.3945C51.2559 14.3268 51.2897 14.293 51.3574 14.293C51.4421 14.276 51.5013 14.2676 51.5352 14.2676C51.5521 13.9967 51.6113 13.7682 51.7129 13.582C51.8314 13.3789 51.9499 13.1927 52.0684 13.0234C52.2038 12.8542 52.3223 12.6764 52.4238 12.4902C52.5423 12.2871 52.61 12.0501 52.627 11.7793C52.9486 11.5931 53.2194 11.3646 53.4395 11.0938C53.6764 10.806 53.8965 10.5182 54.0996 10.2305C54.3197 9.92578 54.5482 9.63802 54.7852 9.36719C55.0221 9.07943 55.3099 8.85091 55.6484 8.68164C55.7331 8.58008 55.7585 8.4362 55.7246 8.25C56.2493 7.86068 56.791 7.51367 57.3496 7.20898C57.9082 6.9043 58.4329 6.54883 58.9238 6.14258H59.8379C60.0579 5.97331 60.3034 5.88867 60.5742 5.88867C60.7773 5.88867 60.972 5.93099 61.1582 6.01562C61.3613 6.10026 61.5475 6.20182 61.7168 6.32031C61.903 6.42188 62.0892 6.5319 62.2754 6.65039C62.4616 6.75195 62.6478 6.82812 62.834 6.87891C63.0202 7.13281 63.1471 7.42904 63.2148 7.76758C63.2995 8.08919 63.3841 8.39388 63.4688 8.68164C63.3164 9.13867 63.2233 9.61263 63.1895 10.1035C63.1556 10.5775 63.0964 11.0514 63.0117 11.5254C62.8932 11.6608 62.7917 11.8132 62.707 11.9824C62.6224 12.1348 62.5293 12.2956 62.4277 12.4648C62.3431 12.6172 62.25 12.7695 62.1484 12.9219C62.0469 13.0573 61.9115 13.1673 61.7422 13.252C61.6068 13.7428 61.3952 14.1322 61.1074 14.4199C60.8197 14.7077 60.5404 15.0462 60.2695 15.4355C60.0156 15.6048 59.7448 15.6895 59.457 15.6895C59.2201 15.6895 59.0085 15.6387 58.8223 15.5371C58.6361 15.4186 58.4668 15.2747 58.3145 15.1055C58.1621 14.9193 58.0352 14.7246 57.9336 14.5215C57.849 14.3014 57.7812 14.0898 57.7305 13.8867C57.849 13.5312 58.0352 13.2266 58.2891 12.9727C58.5599 12.7188 58.8307 12.4648 59.1016 12.2109C59.3724 11.957 59.6094 11.6862 59.8125 11.3984C60.0156 11.1107 60.1172 10.7637 60.1172 10.3574C60.1172 10.3236 60.1087 10.2897 60.0918 10.2559C60.0918 10.222 60.0918 10.1882 60.0918 10.1543C60.0918 10.0866 60.1172 10.0273 60.168 9.97656C60.2188 9.92578 60.2695 9.88346 60.3203 9.84961L60.4727 9.72266C60.5234 9.67188 60.5488 9.61263 60.5488 9.54492C60.5488 9.47721 60.515 9.40951 60.4473 9.3418C59.804 9.39258 59.3132 9.5026 58.9746 9.67188C58.653 9.84115 58.3991 10.0273 58.2129 10.2305C58.0267 10.4336 57.8574 10.6367 57.7051 10.8398C57.5697 11.026 57.3665 11.1615 57.0957 11.2461C57.0449 11.3815 56.9688 11.5 56.8672 11.6016C56.7826 11.6862 56.6895 11.7793 56.5879 11.8809C56.4863 11.9655 56.3932 12.0671 56.3086 12.1855C56.2409 12.304 56.1986 12.4479 56.1816 12.6172H55.7246C55.6569 12.7695 55.5553 12.9219 55.4199 13.0742C55.3014 13.2096 55.1745 13.3451 55.0391 13.4805C54.9206 13.6159 54.8105 13.7682 54.709 13.9375C54.6243 14.0898 54.599 14.2591 54.6328 14.4453C54.4466 14.513 54.3027 14.623 54.2012 14.7754C54.1165 14.9277 53.9896 15.0547 53.8203 15.1562V15.3086C53.8203 15.444 53.7949 15.571 53.7441 15.6895C53.6934 15.8079 53.6849 15.9349 53.7188 16.0703C53.5156 16.2565 53.3633 16.4935 53.2617 16.7812C53.1771 17.0521 53.084 17.306 52.9824 17.543C52.7454 17.6615 52.5846 17.8223 52.5 18.0254C52.4154 18.2285 52.373 18.4655 52.373 18.7363C52.1191 18.9902 51.8906 19.2865 51.6875 19.625C51.4844 19.9635 51.2982 20.3105 51.1289 20.666C50.9766 21.0215 50.8327 21.3854 50.6973 21.7578C50.5618 22.1302 50.418 22.4772 50.2656 22.7988V23.5352C50.0286 23.806 49.8594 24.1276 49.7578 24.5C49.6732 24.8555 49.5378 25.1771 49.3516 25.4648C49.3177 25.651 49.3008 25.8372 49.3008 26.0234C49.3177 26.2096 49.3262 26.3958 49.3262 26.582C49.3262 26.7852 49.3092 26.9967 49.2754 27.2168C49.2415 27.4368 49.1823 27.64 49.0977 27.8262C49.1654 28.0801 49.2161 28.3848 49.25 28.7402C49.2839 29.0788 49.3431 29.4258 49.4277 29.7812C49.5124 30.1198 49.6309 30.4329 49.7832 30.7207C49.9355 30.9915 50.1556 31.1777 50.4434 31.2793C50.5111 31.6517 50.6719 31.931 50.9258 32.1172C51.1966 32.3203 51.5013 32.4811 51.8398 32.5996C52.1784 32.7181 52.5254 32.8197 52.8809 32.9043C53.2363 33.0059 53.5495 33.1328 53.8203 33.2852C53.9219 33.2344 54.0404 33.209 54.1758 33.209C54.3112 33.209 54.4297 33.2259 54.5312 33.2598C54.6497 33.2936 54.7767 33.3275 54.9121 33.3613C55.1491 33.3275 55.4368 33.3105 55.7754 33.3105C56.1309 33.3105 56.4863 33.2936 56.8418 33.2598C57.1973 33.2428 57.5273 33.2005 57.832 33.1328C58.1367 33.0651 58.3822 32.9382 58.5684 32.752C58.6868 32.752 58.763 32.7858 58.7969 32.8535C58.8477 32.9212 58.9323 32.9551 59.0508 32.9551C59.1693 32.9551 59.347 32.9212 59.584 32.8535C59.821 32.8027 60.0664 32.735 60.3203 32.6504C60.5742 32.5827 60.8112 32.5065 61.0312 32.4219C61.2682 32.3372 61.4375 32.2611 61.5391 32.1934C61.5898 32.2103 61.6406 32.2188 61.6914 32.2188H61.8691C62.1061 32.2188 62.3262 32.1764 62.5293 32.0918C62.7324 32.0072 62.9525 31.9818 63.1895 32.0156C63.9681 31.6263 64.7552 31.2878 65.5508 31C66.3633 30.7292 67.1842 30.4837 68.0137 30.2637C68.1152 30.1113 68.2337 30.0013 68.3691 29.9336C68.5215 29.8659 68.6823 29.8151 68.8516 29.7812C69.0208 29.7305 69.1901 29.6966 69.3594 29.6797C69.5286 29.6458 69.6895 29.6035 69.8418 29.5527C69.9434 29.502 70.028 29.4427 70.0957 29.375C70.1803 29.2904 70.2819 29.2227 70.4004 29.1719C70.5189 29.1211 70.6458 29.0872 70.7812 29.0703C70.9336 29.0534 71.0775 29.0365 71.2129 29.0195C71.3652 28.9857 71.5007 28.9434 71.6191 28.8926C71.7546 28.8418 71.8646 28.7572 71.9492 28.6387C72.1862 28.7402 72.4232 28.8503 72.6602 28.9688C72.9141 29.0872 73.1257 29.2565 73.2949 29.4766L73.3203 29.5527ZM85.5586 16.2988C85.457 16.4512 85.3978 16.6204 85.3809 16.8066C85.3639 16.9928 85.3555 17.1621 85.3555 17.3145C85.3555 17.5176 85.3555 17.7207 85.3555 17.9238C85.3724 18.11 85.3809 18.2962 85.3809 18.4824V18.8633C85.347 18.9818 85.2962 19.1003 85.2285 19.2188C85.1608 19.3372 85.11 19.4557 85.0762 19.5742C84.8392 20.2005 84.7207 20.8268 84.7207 21.4531V21.5039C84.6361 21.707 84.5514 21.8932 84.4668 22.0625C84.3991 22.2318 84.3314 22.401 84.2637 22.5703C84.196 22.7227 84.1452 22.8919 84.1113 23.0781C84.0775 23.2474 84.069 23.4505 84.0859 23.6875C83.849 24.2799 83.5358 24.8216 83.1465 25.3125C82.7572 25.7865 82.3763 26.2773 82.0039 26.7852C81.6484 26.9206 81.3184 27.0983 81.0137 27.3184C80.7259 27.5384 80.4466 27.7839 80.1758 28.0547C79.651 28.224 79.1348 28.4186 78.627 28.6387C78.1191 28.8587 77.6621 29.1549 77.2559 29.5273C76.9342 29.5612 76.6126 29.612 76.291 29.6797C75.9694 29.7474 75.6562 29.849 75.3516 29.9844H75.0469C74.8945 29.9844 74.7845 29.9505 74.7168 29.8828C74.4967 30.0013 74.2682 30.0859 74.0312 30.1367C73.7943 30.1706 73.5573 30.1875 73.3203 30.1875C73.0156 30.1875 72.7109 30.1706 72.4062 30.1367C72.1185 30.0859 71.8223 30.0352 71.5176 29.9844C71.3483 29.7474 71.1113 29.5697 70.8066 29.4512C70.502 29.3158 70.2311 29.1888 69.9941 29.0703C69.5033 28.3932 69.1478 27.7415 68.9277 27.1152C68.7077 26.472 68.4792 25.7526 68.2422 24.957C68.276 24.7201 68.3353 24.4915 68.4199 24.2715C68.5046 24.0345 68.5384 23.7806 68.5215 23.5098C68.8262 22.6296 69.224 21.834 69.7148 21.123C70.2227 20.3952 70.7982 19.7012 71.4414 19.041C71.4414 18.9395 71.4583 18.8548 71.4922 18.7871C71.543 18.7194 71.5514 18.6178 71.5176 18.4824C71.5345 18.4993 71.5684 18.5078 71.6191 18.5078C71.7546 18.5078 71.8392 18.474 71.873 18.4062C71.9069 18.3216 71.9154 18.2285 71.8984 18.127C72.5078 17.7376 73.0579 17.2891 73.5488 16.7812C74.0566 16.2734 74.6322 15.8503 75.2754 15.5117C75.3262 15.3594 75.4108 15.2324 75.5293 15.1309C75.6478 15.0293 75.7409 14.9108 75.8086 14.7754C76.3503 14.623 76.8411 14.3945 77.2812 14.0898C77.7214 13.7852 78.1868 13.5143 78.6777 13.2773C78.9486 13.125 79.2025 13.0234 79.4395 12.9727C79.6934 12.9049 79.9642 12.8372 80.252 12.7695C80.3535 12.7357 80.4466 12.7103 80.5312 12.6934C80.6159 12.6764 80.709 12.668 80.8105 12.668C81.1152 12.668 81.4115 12.7272 81.6992 12.8457C81.987 12.9473 82.2832 12.998 82.5879 12.998C82.6725 12.998 82.7402 12.998 82.791 12.998C82.8587 12.9811 82.9264 12.9642 82.9941 12.9473C83.2819 13.3027 83.6458 13.5736 84.0859 13.7598C84.1875 14.0137 84.306 14.2337 84.4414 14.4199C84.5938 14.6061 84.7461 14.7923 84.8984 14.9785C85.0508 15.1478 85.1862 15.3424 85.3047 15.5625C85.4401 15.7656 85.5247 16.0111 85.5586 16.2988ZM83.0195 17.6191C83.0195 17.5345 83.0111 17.4583 82.9941 17.3906C82.8249 17.3398 82.6641 17.2721 82.5117 17.1875C82.3594 17.1029 82.1901 17.0605 82.0039 17.0605C81.8854 17.0605 81.7669 17.0859 81.6484 17.1367C81.6315 17.0182 81.5807 16.9336 81.4961 16.8828C81.4284 16.832 81.3438 16.7897 81.2422 16.7559C81.1576 16.7051 81.0645 16.6712 80.9629 16.6543C80.8783 16.6204 80.8021 16.5697 80.7344 16.502C80.6836 16.3665 80.6243 16.2311 80.5566 16.0957C80.5059 15.9434 80.4043 15.8333 80.252 15.7656C80.0996 15.918 79.9219 16.0449 79.7188 16.1465C79.5156 16.2311 79.304 16.3158 79.084 16.4004C78.8809 16.485 78.6777 16.5866 78.4746 16.7051C78.2884 16.8236 78.1276 16.9674 77.9922 17.1367H77.5352C77.4336 17.3229 77.2897 17.4668 77.1035 17.5684C76.9173 17.653 76.7565 17.7799 76.6211 17.9492C76.3503 18.0846 76.0964 18.2539 75.8594 18.457C75.6393 18.6432 75.4193 18.8464 75.1992 19.0664C74.9792 19.2695 74.7591 19.4811 74.5391 19.7012C74.3359 19.9212 74.1159 20.1243 73.8789 20.3105C73.6589 20.7845 73.4134 21.1992 73.1426 21.5547C72.8887 21.8932 72.6432 22.2402 72.4062 22.5957C72.1862 22.9512 71.9915 23.3405 71.8223 23.7637C71.6699 24.1699 71.5938 24.6777 71.5938 25.2871V25.541C71.5938 25.6257 71.6022 25.7103 71.6191 25.7949C71.8392 26.0319 72.0169 26.2858 72.1523 26.5566C72.3047 26.8275 72.5501 27.0221 72.8887 27.1406C73.2272 27.276 73.5827 27.3353 73.9551 27.3184C74.3444 27.3014 74.7168 27.3438 75.0723 27.4453C75.8848 27.293 76.6634 27.0475 77.4082 26.709C78.1699 26.3535 78.8893 25.9303 79.5664 25.4395C79.668 25.3548 79.7865 25.2702 79.9219 25.1855C80.0573 25.084 80.1673 24.9824 80.252 24.8809C80.3366 24.7962 80.4043 24.7031 80.4551 24.6016C80.5228 24.5 80.5905 24.4069 80.6582 24.3223C80.7936 24.1022 80.946 23.8822 81.1152 23.6621C81.2845 23.4421 81.4622 23.2389 81.6484 23.0527C81.7331 22.6803 81.8431 22.3249 81.9785 21.9863C82.1139 21.6309 82.2493 21.2839 82.3848 20.9453C82.5202 20.6068 82.6302 20.2598 82.7148 19.9043C82.8164 19.5488 82.8672 19.1764 82.8672 18.7871C82.8672 18.7025 82.8587 18.6094 82.8418 18.5078C82.8418 18.4062 82.8333 18.3132 82.8164 18.2285C82.9518 18.0423 83.0195 17.8392 83.0195 17.6191ZM103.383 14.8516V14.9531C103.264 14.987 103.205 15.0716 103.205 15.207C103.019 15.2917 102.824 15.3594 102.621 15.4102C102.418 15.444 102.223 15.5033 102.037 15.5879C101.851 15.571 101.656 15.5625 101.453 15.5625C101.267 15.5456 101.081 15.5371 100.895 15.5371C100.387 15.5371 99.8789 15.554 99.3711 15.5879C98.8633 15.6217 98.3555 15.6217 97.8477 15.5879C97.6107 15.7233 97.3483 15.8333 97.0605 15.918C96.7897 15.9857 96.5273 16.0195 96.2734 16.0195C96.0703 16.0195 95.8926 15.9941 95.7402 15.9434C95.334 16.1465 94.8854 16.3158 94.3945 16.4512C93.9206 16.5866 93.4382 16.722 92.9473 16.8574C92.4564 16.9759 91.9824 17.1198 91.5254 17.2891C91.0853 17.4414 90.696 17.6615 90.3574 17.9492C90.3236 18.1862 90.2982 18.4232 90.2812 18.6602C90.2643 18.8802 90.2559 19.1003 90.2559 19.3203C90.2559 19.5573 90.2643 19.7773 90.2812 19.9805C90.3151 20.1836 90.3743 20.3867 90.459 20.5898C90.5436 20.6237 90.6367 20.6491 90.7383 20.666C90.8568 20.6829 90.9583 20.6914 91.043 20.6914C91.1276 20.6914 91.2122 20.6829 91.2969 20.666C91.3815 20.6322 91.4408 20.5729 91.4746 20.4883C91.7285 20.4544 91.9824 20.446 92.2363 20.4629C92.4902 20.4629 92.7441 20.4629 92.998 20.4629C93.252 20.4629 93.4974 20.4544 93.7344 20.4375C93.9883 20.4206 94.2337 20.3783 94.4707 20.3105C94.7415 20.2428 95.0039 20.2005 95.2578 20.1836C95.5286 20.1667 95.791 20.1497 96.0449 20.1328C96.2988 20.1159 96.5612 20.0905 96.832 20.0566C97.1029 20.0059 97.3822 19.9128 97.6699 19.7773C97.89 19.862 98.11 19.9043 98.3301 19.9043C98.5671 19.9043 98.7956 19.9212 99.0156 19.9551C99.1341 20.0397 99.2272 20.1328 99.2949 20.2344C99.3796 20.3359 99.4219 20.4544 99.4219 20.5898C99.4219 20.8268 99.3372 21.0638 99.168 21.3008C98.9987 21.5378 98.8633 21.7578 98.7617 21.9609H98.4824C98.0762 21.9609 97.6784 22.0202 97.2891 22.1387C96.9167 22.2402 96.5358 22.3672 96.1465 22.5195C95.7741 22.6549 95.3932 22.7819 95.0039 22.9004C94.6315 23.002 94.2422 23.0527 93.8359 23.0527C93.7682 23.0527 93.7259 23.0951 93.709 23.1797C93.709 23.2474 93.6921 23.2982 93.6582 23.332C93.5736 23.3151 93.4466 23.3066 93.2773 23.3066C92.888 23.3066 92.5156 23.349 92.1602 23.4336C91.8047 23.5182 91.4408 23.5605 91.0684 23.5605C90.9668 23.5605 90.8652 23.5605 90.7637 23.5605C90.6621 23.5436 90.5605 23.5267 90.459 23.5098C90.3743 23.6452 90.2643 23.7383 90.1289 23.7891C89.9935 23.8229 89.8665 23.8906 89.748 23.9922C89.6973 24.1445 89.6634 24.3307 89.6465 24.5508C89.6465 24.7708 89.638 24.9993 89.6211 25.2363C89.6211 25.4564 89.6042 25.668 89.5703 25.8711C89.5365 26.0742 89.4688 26.235 89.3672 26.3535C89.3841 26.4382 89.4518 26.472 89.5703 26.4551C89.6888 26.4212 89.748 26.472 89.748 26.6074C89.748 26.7598 89.7311 26.9206 89.6973 27.0898C89.6634 27.2591 89.6465 27.4284 89.6465 27.5977C89.6465 27.9193 89.6803 28.2747 89.748 28.6641C89.8327 29.0365 89.9512 29.3835 90.1035 29.7051C90.2728 30.0267 90.4928 30.2975 90.7637 30.5176C91.0345 30.7207 91.373 30.8223 91.7793 30.8223C92.0501 30.8223 92.304 30.7715 92.541 30.6699C92.778 30.5684 92.9727 30.3991 93.125 30.1621L93.252 30.1367C93.3197 30.1367 93.3789 30.1452 93.4297 30.1621C93.4974 30.179 93.5651 30.1875 93.6328 30.1875C93.7344 30.1875 93.8613 30.1283 94.0137 30.0098C94.1829 29.8743 94.3607 29.722 94.5469 29.5527C94.75 29.3835 94.9531 29.2227 95.1562 29.0703C95.3594 28.901 95.554 28.7826 95.7402 28.7148C95.8587 28.4779 95.9688 28.2409 96.0703 28.0039C96.1888 27.7669 96.3581 27.5807 96.5781 27.4453V26.709C96.7474 26.5228 96.9251 26.3535 97.1113 26.2012C97.3145 26.0488 97.4668 25.8542 97.5684 25.6172C97.653 25.651 97.7292 25.6764 97.7969 25.6934C97.8815 25.7103 97.9661 25.7188 98.0508 25.7188C98.1354 25.7188 98.2201 25.7103 98.3047 25.6934C98.4062 25.6764 98.4993 25.651 98.584 25.6172C98.7194 25.8034 98.821 26.015 98.8887 26.252C98.9733 26.472 99.0749 26.6836 99.1934 26.8867C99.041 27.1914 98.8633 27.5553 98.6602 27.9785C98.457 28.4017 98.237 28.8249 98 29.248C97.763 29.6712 97.5091 30.0775 97.2383 30.4668C96.9844 30.8392 96.7305 31.127 96.4766 31.3301C96.4258 31.3809 96.3158 31.4401 96.1465 31.5078C95.9603 31.6432 95.791 31.7702 95.6387 31.8887C95.4863 32.0241 95.3424 32.1764 95.207 32.3457C94.7161 32.498 94.2422 32.7012 93.7852 32.9551C93.3451 33.209 92.9049 33.4544 92.4648 33.6914C92.2617 33.6406 92.0417 33.6152 91.8047 33.6152C91.6016 33.6152 91.3984 33.6237 91.1953 33.6406C90.9922 33.6745 90.7721 33.6914 90.5352 33.6914C90.4674 33.6068 90.3659 33.5475 90.2305 33.5137C90.112 33.4967 90.0697 33.4121 90.1035 33.2598C89.528 33.2259 89.0625 33.0651 88.707 32.7773C88.3516 32.5065 88.0469 32.168 87.793 31.7617C87.556 31.3555 87.3613 30.9154 87.209 30.4414C87.0566 29.9674 86.8958 29.5104 86.7266 29.0703V28.9941C86.7266 28.9095 86.7604 28.8587 86.8281 28.8418C86.8958 28.8249 86.9297 28.7741 86.9297 28.6895C86.9297 28.6556 86.9212 28.6302 86.9043 28.6133C86.8535 28.4271 86.8112 28.2663 86.7773 28.1309C86.7435 27.9954 86.7266 27.8346 86.7266 27.6484C86.7266 27.3776 86.7435 27.1152 86.7773 26.8613C86.8112 26.5905 86.8281 26.3197 86.8281 26.0488C86.8281 25.778 86.7943 25.541 86.7266 25.3379C86.7943 25.2533 86.8535 25.1432 86.9043 25.0078C86.9382 24.8555 86.9635 24.7031 86.9805 24.5508C86.9974 24.3984 87.0059 24.2461 87.0059 24.0938C87.0228 23.9414 87.0482 23.806 87.082 23.6875C87.0143 23.5013 86.9551 23.3405 86.9043 23.2051C86.8535 23.0527 86.8281 22.875 86.8281 22.6719V22.4941C86.9974 22.2064 87.1413 21.9102 87.2598 21.6055C87.3783 21.3008 87.5052 20.9876 87.6406 20.666V20.5898C87.6406 20.099 87.6237 19.6081 87.5898 19.1172C87.556 18.6263 87.5391 18.1354 87.5391 17.6445V17.1621C87.5391 16.9928 87.5475 16.832 87.5645 16.6797C87.6999 16.612 87.8014 16.5189 87.8691 16.4004C87.9368 16.2819 88.0384 16.1888 88.1738 16.1211H89.0117L89.1641 15.8672C89.2148 15.7826 89.2487 15.6895 89.2656 15.5879C89.4518 15.5371 89.6296 15.4694 89.7988 15.3848C89.985 15.2832 90.1543 15.1816 90.3066 15.0801C90.5436 14.9447 90.7552 14.8262 90.9414 14.7246C91.1445 14.6061 91.3392 14.513 91.5254 14.4453C91.7285 14.3607 91.9401 14.293 92.1602 14.2422C92.3802 14.1914 92.6341 14.1491 92.9219 14.1152C93.0573 14.1152 93.1419 14.0898 93.1758 14.0391C93.2266 13.9883 93.2943 13.929 93.3789 13.8613C93.582 13.8952 93.7852 13.929 93.9883 13.9629C94.1914 13.9798 94.3945 13.9883 94.5977 13.9883C95.0039 13.9883 95.3848 13.9121 95.7402 13.7598C96.248 13.7598 96.7474 13.7513 97.2383 13.7344C97.7461 13.7174 98.2539 13.709 98.7617 13.709C99.2018 13.709 99.6419 13.7259 100.082 13.7598C100.522 13.7936 100.954 13.8529 101.377 13.9375C101.529 13.8867 101.699 13.8613 101.885 13.8613C102.088 13.8613 102.291 13.8867 102.494 13.9375C102.714 13.9714 102.926 13.9714 103.129 13.9375C103.146 14.1237 103.188 14.2845 103.256 14.4199C103.34 14.5384 103.383 14.6823 103.383 14.8516ZM101.529 3.19727C101.462 3.33268 101.385 3.44271 101.301 3.52734C101.233 3.61198 101.165 3.70508 101.098 3.80664C101.047 3.89128 101.005 3.99284 100.971 4.11133C100.954 4.22982 100.954 4.38216 100.971 4.56836C100.852 4.77148 100.708 4.95768 100.539 5.12695C100.387 5.29622 100.226 5.46549 100.057 5.63477C99.9043 5.78711 99.752 5.95638 99.5996 6.14258C99.4642 6.32878 99.3542 6.5319 99.2695 6.75195C98.8802 6.87044 98.5924 7.08203 98.4062 7.38672C98.237 7.67448 98.0677 7.9707 97.8984 8.27539C97.4076 8.44466 97.0352 8.76628 96.7812 9.24023C96.5443 9.71419 96.4258 10.1882 96.4258 10.6621C96.2057 10.8991 95.9349 11.043 95.6133 11.0938C95.2917 11.1445 94.987 11.1699 94.6992 11.1699C94.4961 11.1699 94.293 11.1699 94.0898 11.1699C93.9036 11.153 93.7174 11.1361 93.5312 11.1191C93.4297 10.9668 93.3535 10.806 93.3027 10.6367C93.2689 10.4674 93.235 10.2982 93.2012 10.1289C93.1842 9.94271 93.1589 9.76497 93.125 9.5957C93.1081 9.42643 93.0573 9.26562 92.9727 9.11328C93.9375 8.19922 94.86 7.25977 95.7402 6.29492C96.6374 5.33008 97.5091 4.33138 98.3555 3.29883C98.3385 3.24805 98.3301 3.17188 98.3301 3.07031C98.3301 2.95182 98.347 2.85026 98.3809 2.76562C98.4316 2.66406 98.474 2.57096 98.5078 2.48633C98.5417 2.40169 98.5671 2.30859 98.584 2.20703C98.6178 2.10547 98.6263 1.97852 98.6094 1.82617C98.931 1.69076 99.2526 1.62305 99.5742 1.62305C100.065 1.62305 100.48 1.77539 100.818 2.08008C101.157 2.36784 101.394 2.74023 101.529 3.19727ZM132.48 32.041C132.447 32.3796 132.328 32.6419 132.125 32.8281C131.922 33.0312 131.66 33.1328 131.338 33.1328C131.169 33.1328 131.008 33.1074 130.855 33.0566C130.534 33.3105 130.153 33.5052 129.713 33.6406C129.273 33.776 128.858 33.9115 128.469 34.0469C127.995 34.0299 127.529 33.9876 127.072 33.9199C126.615 33.8522 126.141 33.8353 125.65 33.8691C125.481 33.7507 125.303 33.6745 125.117 33.6406C124.931 33.6068 124.736 33.5814 124.533 33.5645C124.347 33.5645 124.161 33.5391 123.975 33.4883C123.805 33.4375 123.636 33.319 123.467 33.1328H122.197C122.079 33.1328 121.901 33.0736 121.664 32.9551C121.444 32.8535 121.19 32.7435 120.902 32.625C120.632 32.5065 120.335 32.3965 120.014 32.2949C119.709 32.1934 119.421 32.1426 119.15 32.1426H118.998C118.812 31.9902 118.592 31.8717 118.338 31.7871C118.101 31.7194 117.855 31.6517 117.602 31.584C117.348 31.5332 117.102 31.474 116.865 31.4062C116.628 31.3385 116.425 31.2454 116.256 31.127C116.087 31.0085 115.892 30.89 115.672 30.7715C115.452 30.6361 115.223 30.5768 114.986 30.5938C114.665 30.4076 114.326 30.2467 113.971 30.1113C113.632 29.9759 113.285 29.849 112.93 29.7305L111.889 29.3496C111.55 29.2142 111.212 29.0534 110.873 28.8672C110.822 28.8841 110.763 28.8841 110.695 28.8672C110.628 28.8503 110.568 28.8418 110.518 28.8418C110.416 28.8418 110.357 28.8757 110.34 28.9434C110.221 28.8249 110.086 28.7233 109.934 28.6387C109.798 28.554 109.663 28.4525 109.527 28.334C109.46 28.3509 109.392 28.3678 109.324 28.3848C109.273 28.3848 109.206 28.3848 109.121 28.3848C108.969 28.3848 108.816 28.3678 108.664 28.334C108.529 28.3001 108.393 28.2578 108.258 28.207C108.105 28.5456 108.004 28.9264 107.953 29.3496C107.902 29.7728 107.86 30.2129 107.826 30.6699C107.809 31.11 107.784 31.5501 107.75 31.9902C107.716 32.4473 107.64 32.862 107.521 33.2344C107.555 33.3698 107.572 33.5052 107.572 33.6406V34.0723C107.572 34.36 107.615 34.5885 107.699 34.7578C107.665 34.9102 107.632 35.054 107.598 35.1895C107.581 35.3249 107.555 35.4603 107.521 35.5957C107.538 35.7819 107.547 35.9512 107.547 36.1035C107.564 36.2728 107.572 36.4505 107.572 36.6367V37.0684C107.572 37.2207 107.555 37.373 107.521 37.5254C107.352 37.627 107.183 37.7201 107.014 37.8047C106.844 37.9062 106.675 38.0247 106.506 38.1602C106.387 37.9401 106.184 37.8132 105.896 37.7793C105.829 37.8639 105.778 37.974 105.744 38.1094C105.727 38.2617 105.651 38.3379 105.516 38.3379C105.279 38.1517 105.084 37.9993 104.932 37.8809C104.779 37.7624 104.61 37.5846 104.424 37.3477C104.407 37.3138 104.398 37.2715 104.398 37.2207C104.398 37.1361 104.415 37.0599 104.449 36.9922C104.483 36.9245 104.5 36.8568 104.5 36.7891C104.5 36.5859 104.475 36.4082 104.424 36.2559C104.39 36.0358 104.365 35.8158 104.348 35.5957C104.331 35.3926 104.322 35.1895 104.322 34.9863C104.322 34.6986 104.339 34.4193 104.373 34.1484C104.424 33.8776 104.508 33.5983 104.627 33.3105C104.813 32.8197 104.94 32.3034 105.008 31.7617C105.092 31.2201 105.152 30.6784 105.186 30.1367C105.219 29.5781 105.236 29.0195 105.236 28.4609C105.253 27.9023 105.287 27.3691 105.338 26.8613C105.219 26.5905 105.076 26.3789 104.906 26.2266C104.754 26.0573 104.678 25.7949 104.678 25.4395C104.678 25.1178 104.779 24.8724 104.982 24.7031C105.186 24.5169 105.363 24.2969 105.516 24.043C105.482 23.9414 105.507 23.8737 105.592 23.8398L105.896 21.1738C105.913 20.9876 105.939 20.7845 105.973 20.5645C106.023 20.3444 106.057 20.1413 106.074 19.9551C106.108 19.5658 106.125 19.1849 106.125 18.8125C106.125 18.4401 106.142 18.0677 106.176 17.6953C106.26 16.8659 106.337 16.0449 106.404 15.2324C106.489 14.4199 106.531 13.6074 106.531 12.7949C106.531 12.4056 106.514 12.0163 106.48 11.627C106.464 11.2376 106.413 10.8483 106.328 10.459C106.04 10.5436 105.719 10.6367 105.363 10.7383C105.025 10.8229 104.737 10.9753 104.5 11.1953H104.297C103.857 11.1953 103.442 11.2799 103.053 11.4492C102.68 11.6185 102.299 11.7793 101.91 11.9316C101.741 12.0163 101.572 12.0755 101.402 12.1094C101.233 12.1263 101.055 12.1602 100.869 12.2109C100.785 12.2279 100.691 12.2786 100.59 12.3633C100.488 12.4479 100.395 12.5072 100.311 12.541L99.8789 12.6426C99.7604 12.6764 99.7096 12.7526 99.7266 12.8711C99.7435 12.9896 99.7012 13.0658 99.5996 13.0996C99.515 13.1842 99.3965 13.2266 99.2441 13.2266C99.0918 13.2096 98.9733 13.2012 98.8887 13.2012H98.7871C98.3639 13.5059 97.9577 13.7682 97.5684 13.9883C97.1621 14.1914 96.6882 14.3268 96.1465 14.3945L95.5879 14.75C95.4017 14.8685 95.1901 14.9277 94.9531 14.9277C94.7669 14.9277 94.6146 14.8939 94.4961 14.8262C94.3607 14.623 94.2591 14.3945 94.1914 14.1406C94.1068 13.8867 93.9714 13.6667 93.7852 13.4805C93.8698 13.3958 93.929 13.2858 93.9629 13.1504C93.9798 12.998 94.0052 12.8626 94.0391 12.7441C94.5469 12.5241 95.0632 12.3125 95.5879 12.1094C96.0957 11.9062 96.5866 11.6608 97.0605 11.373C97.1113 11.39 97.1875 11.3984 97.2891 11.3984C97.4583 11.3984 97.6107 11.373 97.7461 11.3223C97.8815 11.2715 98.0169 11.2122 98.1523 11.1445C98.2878 11.0768 98.4232 11.0176 98.5586 10.9668C98.694 10.916 98.8548 10.8991 99.041 10.916C99.6165 10.5944 100.226 10.332 100.869 10.1289C101.512 9.92578 102.122 9.64648 102.697 9.29102C102.782 9.29102 102.85 9.30794 102.9 9.3418C102.968 9.37565 103.036 9.39258 103.104 9.39258C103.171 9.39258 103.214 9.38411 103.23 9.36719C103.332 9.23177 103.467 9.13867 103.637 9.08789C103.806 9.02018 103.975 8.9694 104.145 8.93555C104.331 8.88477 104.5 8.82552 104.652 8.75781C104.822 8.67318 104.932 8.54622 104.982 8.37695C105.067 8.44466 105.194 8.47852 105.363 8.47852C105.651 8.47852 105.913 8.41927 106.15 8.30078C106.404 8.18229 106.675 8.12305 106.963 8.12305C107.031 8.12305 107.09 8.13997 107.141 8.17383C107.208 8.19076 107.276 8.19922 107.344 8.19922C107.479 8.19922 107.547 8.1569 107.547 8.07227C107.564 7.98763 107.615 7.91146 107.699 7.84375C108.732 7.65755 109.756 7.48828 110.771 7.33594C111.804 7.18359 112.845 7.10742 113.895 7.10742C114.047 7.00586 114.216 6.95508 114.402 6.95508C114.589 6.95508 114.758 7.00586 114.91 7.10742C115.198 7.07357 115.486 7.04818 115.773 7.03125C116.061 7.01432 116.349 7.00586 116.637 7.00586C117.297 7.00586 117.974 7.04818 118.668 7.13281C119.362 7.21745 120.048 7.35286 120.725 7.53906C121.419 7.70833 122.079 7.94531 122.705 8.25C123.331 8.53776 123.915 8.88477 124.457 9.29102C124.508 9.44336 124.576 9.5957 124.66 9.74805C124.745 9.90039 124.855 10.0189 124.99 10.1035C124.99 10.1374 124.982 10.1628 124.965 10.1797C124.965 10.1966 124.965 10.222 124.965 10.2559C124.965 10.4421 125.016 10.6198 125.117 10.7891C125.236 10.9583 125.295 11.1615 125.295 11.3984C125.295 11.6354 125.253 11.8724 125.168 12.1094C125.1 12.3464 125.075 12.5833 125.092 12.8203C124.906 13.0911 124.745 13.3366 124.609 13.5566C124.491 13.7767 124.415 14.056 124.381 14.3945C124.076 14.6992 123.805 15.0378 123.568 15.4102C123.331 15.7656 123.086 16.1211 122.832 16.4766C122.595 16.8151 122.324 17.1283 122.02 17.416C121.715 17.7038 121.351 17.9323 120.928 18.1016C120.911 18.2708 120.843 18.457 120.725 18.6602H120.191C120.141 18.7956 120.056 18.8971 119.938 18.9648L119.582 19.168C119.464 19.2357 119.362 19.3203 119.277 19.4219C119.21 19.5234 119.176 19.6673 119.176 19.8535C119.142 19.8366 119.1 19.8281 119.049 19.8281C118.88 19.8281 118.676 19.9128 118.439 20.082C118.219 20.2513 118.042 20.3867 117.906 20.4883C117.618 20.6914 117.322 20.8776 117.018 21.0469C116.73 21.2161 116.476 21.4531 116.256 21.7578C115.579 22.0456 114.936 22.3841 114.326 22.7734C113.717 23.1458 113.057 23.4421 112.346 23.6621C112.075 23.9499 111.753 24.1784 111.381 24.3477C111.025 24.5 110.678 24.6693 110.34 24.8555V24.9316C110.34 25.0671 110.391 25.2025 110.492 25.3379C110.594 25.4564 110.712 25.5664 110.848 25.668C110.983 25.7526 111.127 25.8118 111.279 25.8457C111.449 25.8796 111.592 25.8796 111.711 25.8457C112.049 26.1504 112.439 26.3958 112.879 26.582C113.319 26.7682 113.776 26.9375 114.25 27.0898C114.724 27.2422 115.189 27.403 115.646 27.5723C116.104 27.7415 116.527 27.9531 116.916 28.207H117.525C117.915 28.5456 118.372 28.7995 118.896 28.9688C119.438 29.138 119.954 29.2904 120.445 29.4258C120.648 29.612 120.902 29.7559 121.207 29.8574C121.529 29.9421 121.833 29.9844 122.121 29.9844H122.273C122.341 29.9844 122.4 29.9759 122.451 29.959V30.0098C122.451 30.0944 122.477 30.1536 122.527 30.1875C122.578 30.2044 122.629 30.2214 122.68 30.2383C122.747 30.2383 122.807 30.2552 122.857 30.2891C122.925 30.306 122.976 30.3398 123.01 30.3906H123.264C123.619 30.3906 123.958 30.4668 124.279 30.6191C124.601 30.7546 124.939 30.8223 125.295 30.8223C125.447 30.8223 125.566 30.8053 125.65 30.7715C125.752 30.8053 125.828 30.873 125.879 30.9746C125.93 31.0762 125.997 31.1608 126.082 31.2285C126.201 31.2116 126.311 31.1947 126.412 31.1777C126.514 31.1777 126.615 31.1777 126.717 31.1777C127.089 31.1777 127.436 31.2201 127.758 31.3047C128.079 31.3893 128.41 31.5163 128.748 31.6855C129.29 31.4486 129.823 31.2539 130.348 31.1016C130.872 30.9492 131.431 30.873 132.023 30.873V30.9238C132.023 31.127 132.074 31.3132 132.176 31.4824C132.294 31.6686 132.396 31.8548 132.48 32.041ZM122.756 11.7793C122.756 11.5762 122.714 11.4154 122.629 11.2969C122.561 11.1784 122.468 11.0768 122.35 10.9922C122.231 10.8906 122.104 10.7975 121.969 10.7129C121.85 10.6283 121.74 10.5182 121.639 10.3828C121.199 10.2474 120.767 10.0951 120.344 9.92578C119.921 9.75651 119.489 9.61263 119.049 9.49414C118.829 9.44336 118.609 9.40104 118.389 9.36719C118.169 9.31641 117.949 9.29102 117.729 9.29102H117.17C117.068 9.27409 116.958 9.25716 116.84 9.24023C116.738 9.20638 116.637 9.18099 116.535 9.16406C116.298 9.13021 116.061 9.10482 115.824 9.08789C115.604 9.07096 115.376 9.0625 115.139 9.0625C114.699 9.0625 114.258 9.07943 113.818 9.11328L112.498 9.21484C112.312 9.23177 112.117 9.24023 111.914 9.24023C111.711 9.24023 111.525 9.25716 111.355 9.29102C111.271 9.30794 111.152 9.35026 111 9.41797C110.848 9.46875 110.687 9.52799 110.518 9.5957C110.348 9.64648 110.179 9.70573 110.01 9.77344C109.857 9.84115 109.722 9.89193 109.604 9.92578C109.62 10.0443 109.629 10.1628 109.629 10.2812V10.6113C109.629 10.8652 109.62 11.1191 109.604 11.373C109.587 11.627 109.553 11.8809 109.502 12.1348C109.485 12.2363 109.46 12.3379 109.426 12.4395C109.392 12.541 109.367 12.6426 109.35 12.7441C109.316 12.8965 109.299 13.0658 109.299 13.252V13.7344C109.265 14.1237 109.24 14.5046 109.223 14.877C109.206 15.2493 109.18 15.6302 109.146 16.0195C109.045 17.1367 108.935 18.2454 108.816 19.3457C108.715 20.446 108.647 21.5547 108.613 22.6719C109.172 22.5534 109.705 22.3757 110.213 22.1387C110.721 21.9017 111.22 21.6478 111.711 21.377C112.202 21.0892 112.693 20.8099 113.184 20.5391C113.674 20.2682 114.191 20.0397 114.732 19.8535C114.868 19.6673 115.029 19.515 115.215 19.3965C115.418 19.278 115.587 19.1257 115.723 18.9395C115.892 18.9395 116.019 18.9056 116.104 18.8379C116.188 18.7533 116.298 18.694 116.434 18.6602C117.246 17.9492 118.076 17.2806 118.922 16.6543C119.768 16.028 120.581 15.3594 121.359 14.6484C121.427 14.4115 121.537 14.1829 121.689 13.9629C121.859 13.7259 122.02 13.4889 122.172 13.252C122.324 13.015 122.46 12.778 122.578 12.541C122.697 12.304 122.756 12.0501 122.756 11.7793ZM140.58 16.2988C140.479 16.4512 140.419 16.6204 140.402 16.8066C140.385 16.9928 140.377 17.1621 140.377 17.3145C140.377 17.5176 140.377 17.7207 140.377 17.9238C140.394 18.11 140.402 18.2962 140.402 18.4824V18.8633C140.368 18.9818 140.318 19.1003 140.25 19.2188C140.182 19.3372 140.132 19.4557 140.098 19.5742C139.861 20.2005 139.742 20.8268 139.742 21.4531V21.5039C139.658 21.707 139.573 21.8932 139.488 22.0625C139.421 22.2318 139.353 22.401 139.285 22.5703C139.217 22.7227 139.167 22.8919 139.133 23.0781C139.099 23.2474 139.09 23.4505 139.107 23.6875C138.87 24.2799 138.557 24.8216 138.168 25.3125C137.779 25.7865 137.398 26.2773 137.025 26.7852C136.67 26.9206 136.34 27.0983 136.035 27.3184C135.747 27.5384 135.468 27.7839 135.197 28.0547C134.673 28.224 134.156 28.4186 133.648 28.6387C133.141 28.8587 132.684 29.1549 132.277 29.5273C131.956 29.5612 131.634 29.612 131.312 29.6797C130.991 29.7474 130.678 29.849 130.373 29.9844H130.068C129.916 29.9844 129.806 29.9505 129.738 29.8828C129.518 30.0013 129.29 30.0859 129.053 30.1367C128.816 30.1706 128.579 30.1875 128.342 30.1875C128.037 30.1875 127.732 30.1706 127.428 30.1367C127.14 30.0859 126.844 30.0352 126.539 29.9844C126.37 29.7474 126.133 29.5697 125.828 29.4512C125.523 29.3158 125.253 29.1888 125.016 29.0703C124.525 28.3932 124.169 27.7415 123.949 27.1152C123.729 26.472 123.501 25.7526 123.264 24.957C123.298 24.7201 123.357 24.4915 123.441 24.2715C123.526 24.0345 123.56 23.7806 123.543 23.5098C123.848 22.6296 124.245 21.834 124.736 21.123C125.244 20.3952 125.82 19.7012 126.463 19.041C126.463 18.9395 126.48 18.8548 126.514 18.7871C126.564 18.7194 126.573 18.6178 126.539 18.4824C126.556 18.4993 126.59 18.5078 126.641 18.5078C126.776 18.5078 126.861 18.474 126.895 18.4062C126.928 18.3216 126.937 18.2285 126.92 18.127C127.529 17.7376 128.079 17.2891 128.57 16.7812C129.078 16.2734 129.654 15.8503 130.297 15.5117C130.348 15.3594 130.432 15.2324 130.551 15.1309C130.669 15.0293 130.762 14.9108 130.83 14.7754C131.372 14.623 131.863 14.3945 132.303 14.0898C132.743 13.7852 133.208 13.5143 133.699 13.2773C133.97 13.125 134.224 13.0234 134.461 12.9727C134.715 12.9049 134.986 12.8372 135.273 12.7695C135.375 12.7357 135.468 12.7103 135.553 12.6934C135.637 12.6764 135.73 12.668 135.832 12.668C136.137 12.668 136.433 12.7272 136.721 12.8457C137.008 12.9473 137.305 12.998 137.609 12.998C137.694 12.998 137.762 12.998 137.812 12.998C137.88 12.9811 137.948 12.9642 138.016 12.9473C138.303 13.3027 138.667 13.5736 139.107 13.7598C139.209 14.0137 139.327 14.2337 139.463 14.4199C139.615 14.6061 139.768 14.7923 139.92 14.9785C140.072 15.1478 140.208 15.3424 140.326 15.5625C140.462 15.7656 140.546 16.0111 140.58 16.2988ZM138.041 17.6191C138.041 17.5345 138.033 17.4583 138.016 17.3906C137.846 17.3398 137.686 17.2721 137.533 17.1875C137.381 17.1029 137.212 17.0605 137.025 17.0605C136.907 17.0605 136.788 17.0859 136.67 17.1367C136.653 17.0182 136.602 16.9336 136.518 16.8828C136.45 16.832 136.365 16.7897 136.264 16.7559C136.179 16.7051 136.086 16.6712 135.984 16.6543C135.9 16.6204 135.824 16.5697 135.756 16.502C135.705 16.3665 135.646 16.2311 135.578 16.0957C135.527 15.9434 135.426 15.8333 135.273 15.7656C135.121 15.918 134.943 16.0449 134.74 16.1465C134.537 16.2311 134.326 16.3158 134.105 16.4004C133.902 16.485 133.699 16.5866 133.496 16.7051C133.31 16.8236 133.149 16.9674 133.014 17.1367H132.557C132.455 17.3229 132.311 17.4668 132.125 17.5684C131.939 17.653 131.778 17.7799 131.643 17.9492C131.372 18.0846 131.118 18.2539 130.881 18.457C130.661 18.6432 130.441 18.8464 130.221 19.0664C130.001 19.2695 129.781 19.4811 129.561 19.7012C129.357 19.9212 129.137 20.1243 128.9 20.3105C128.68 20.7845 128.435 21.1992 128.164 21.5547C127.91 21.8932 127.665 22.2402 127.428 22.5957C127.208 22.9512 127.013 23.3405 126.844 23.7637C126.691 24.1699 126.615 24.6777 126.615 25.2871V25.541C126.615 25.6257 126.624 25.7103 126.641 25.7949C126.861 26.0319 127.038 26.2858 127.174 26.5566C127.326 26.8275 127.572 27.0221 127.91 27.1406C128.249 27.276 128.604 27.3353 128.977 27.3184C129.366 27.3014 129.738 27.3438 130.094 27.4453C130.906 27.293 131.685 27.0475 132.43 26.709C133.191 26.3535 133.911 25.9303 134.588 25.4395C134.689 25.3548 134.808 25.2702 134.943 25.1855C135.079 25.084 135.189 24.9824 135.273 24.8809C135.358 24.7962 135.426 24.7031 135.477 24.6016C135.544 24.5 135.612 24.4069 135.68 24.3223C135.815 24.1022 135.967 23.8822 136.137 23.6621C136.306 23.4421 136.484 23.2389 136.67 23.0527C136.755 22.6803 136.865 22.3249 137 21.9863C137.135 21.6309 137.271 21.2839 137.406 20.9453C137.542 20.6068 137.652 20.2598 137.736 19.9043C137.838 19.5488 137.889 19.1764 137.889 18.7871C137.889 18.7025 137.88 18.6094 137.863 18.5078C137.863 18.4062 137.855 18.3132 137.838 18.2285C137.973 18.0423 138.041 17.8392 138.041 17.6191ZM161.375 13.0996C161.375 13.252 161.341 13.3958 161.273 13.5312L161.096 13.9121C161.045 14.0306 160.994 14.1576 160.943 14.293C160.893 14.4284 160.876 14.5892 160.893 14.7754C160.656 15.0462 160.419 15.3086 160.182 15.5625C159.945 15.8164 159.733 16.1042 159.547 16.4258C159.361 16.4089 159.217 16.4512 159.115 16.5527C159.031 16.6543 158.963 16.7897 158.912 16.959C158.557 17.0775 158.243 17.2637 157.973 17.5176C157.702 17.7546 157.465 18.0169 157.262 18.3047C156.365 18.6771 155.527 19.1341 154.748 19.6758C153.969 20.2174 153.258 20.8522 152.615 21.5801C152.92 21.5801 153.216 21.6139 153.504 21.6816C153.809 21.7493 154.105 21.8255 154.393 21.9102C154.697 21.9779 154.993 22.0456 155.281 22.1133C155.569 22.1641 155.865 22.1725 156.17 22.1387C156.39 22.3418 156.635 22.5111 156.906 22.6465C157.194 22.7819 157.473 22.9089 157.744 23.0273C158.032 23.1458 158.303 23.2812 158.557 23.4336C158.827 23.5859 159.064 23.7721 159.268 23.9922C159.268 24.026 159.259 24.0599 159.242 24.0938C159.242 24.1107 159.242 24.1361 159.242 24.1699C159.242 24.3053 159.276 24.4408 159.344 24.5762C159.411 24.6947 159.445 24.8216 159.445 24.957C159.361 25.0924 159.285 25.2363 159.217 25.3887C159.149 25.541 159.064 25.6764 158.963 25.7949C158.878 25.9134 158.777 26.015 158.658 26.0996C158.54 26.1842 158.379 26.235 158.176 26.252C158.091 26.5397 157.956 26.7682 157.77 26.9375C157.583 27.0898 157.372 27.2337 157.135 27.3691C156.915 27.4876 156.695 27.6146 156.475 27.75C156.255 27.8685 156.068 28.0293 155.916 28.2324C155.408 28.3509 154.909 28.5202 154.418 28.7402C153.944 28.9434 153.521 29.2396 153.148 29.6289C152.895 29.6628 152.632 29.7051 152.361 29.7559C152.107 29.7897 151.854 29.8066 151.6 29.8066C151.244 29.8066 150.956 29.7389 150.736 29.6035C150.516 29.4512 150.389 29.1803 150.355 28.791C150.406 28.6725 150.482 28.571 150.584 28.4863L150.914 28.2324C151.033 28.1478 151.134 28.0632 151.219 27.9785C151.32 27.877 151.396 27.7585 151.447 27.623C151.481 27.623 151.523 27.6315 151.574 27.6484C151.625 27.6484 151.676 27.6484 151.727 27.6484C151.93 27.6484 152.09 27.6061 152.209 27.5215C152.327 27.4368 152.438 27.3522 152.539 27.2676C152.658 27.1829 152.785 27.1068 152.92 27.0391C153.055 26.9714 153.233 26.946 153.453 26.9629C153.572 26.7428 153.749 26.582 153.986 26.4805C154.223 26.362 154.469 26.2604 154.723 26.1758C154.977 26.0742 155.214 25.9642 155.434 25.8457C155.671 25.7103 155.831 25.5156 155.916 25.2617C155.831 25.1263 155.721 25.0247 155.586 24.957C155.451 24.8724 155.298 24.8047 155.129 24.7539L154.646 24.6016C154.494 24.5508 154.359 24.4915 154.24 24.4238C154.054 24.4746 153.876 24.5 153.707 24.5C153.352 24.5 153.005 24.4661 152.666 24.3984C152.327 24.3307 151.98 24.2969 151.625 24.2969C151.303 24.2969 151.024 24.3392 150.787 24.4238C150.702 24.4069 150.609 24.3815 150.508 24.3477C150.423 24.3138 150.339 24.2799 150.254 24.2461C149.865 24.3984 149.458 24.4746 149.035 24.4746H147.385C147.249 24.4746 147.114 24.4915 146.979 24.5254C146.792 24.8639 146.699 25.2279 146.699 25.6172C146.699 25.9049 146.742 26.1842 146.826 26.4551C146.911 26.709 146.995 26.9798 147.08 27.2676C147.419 27.5723 147.732 27.9362 148.02 28.3594C148.307 28.7656 148.451 29.2142 148.451 29.7051C148.451 29.8236 148.443 29.9167 148.426 29.9844C148.257 29.8659 148.036 29.8066 147.766 29.8066C147.529 29.8066 147.3 29.8405 147.08 29.9082C146.877 29.9759 146.657 30.0267 146.42 30.0605C146.234 29.9759 146.039 29.8913 145.836 29.8066C145.633 29.7051 145.438 29.5866 145.252 29.4512C145.117 29.1634 144.981 28.8926 144.846 28.6387C144.71 28.3678 144.541 28.1139 144.338 27.877V27.7754C144.338 27.1829 144.287 26.599 144.186 26.0234C144.101 25.4479 144.059 24.8639 144.059 24.2715C144.059 24.0007 144.067 23.7298 144.084 23.459C144.118 23.1712 144.202 22.9089 144.338 22.6719C144.287 22.2656 144.262 21.8424 144.262 21.4023C144.262 20.5221 144.312 19.6419 144.414 18.7617C144.516 17.8815 144.566 16.9844 144.566 16.0703C144.566 15.8841 144.558 15.6979 144.541 15.5117C144.541 15.3255 144.533 15.1393 144.516 14.9531H144.414C144.194 14.9531 143.982 14.987 143.779 15.0547C143.576 15.1055 143.373 15.1647 143.17 15.2324C142.967 15.3001 142.755 15.3678 142.535 15.4355C142.315 15.4863 142.095 15.5117 141.875 15.5117C141.74 15.5794 141.63 15.6471 141.545 15.7148C141.46 15.7826 141.376 15.8418 141.291 15.8926C141.206 15.9434 141.113 15.9857 141.012 16.0195C140.893 16.0534 140.758 16.0618 140.605 16.0449C140.419 16.1634 140.275 16.2565 140.174 16.3242C140.055 16.375 139.895 16.4342 139.691 16.502C139.59 16.5358 139.505 16.5866 139.438 16.6543L139.234 16.832C139.167 16.8828 139.09 16.9336 139.006 16.9844C138.921 17.0352 138.811 17.0605 138.676 17.0605C138.557 17.0605 138.473 17.0521 138.422 17.0352C138.32 16.9505 138.236 16.849 138.168 16.7305C138.083 16.612 138.007 16.502 137.939 16.4004C137.855 16.2819 137.77 16.1803 137.686 16.0957C137.584 15.9941 137.465 15.918 137.33 15.8672C137.398 15.7826 137.432 15.7148 137.432 15.6641C137.415 15.5964 137.406 15.5202 137.406 15.4355C137.406 15.3848 137.415 15.3509 137.432 15.334C137.516 15.0293 137.669 14.7923 137.889 14.623C138.109 14.4368 138.354 14.293 138.625 14.1914C138.896 14.0729 139.175 13.9714 139.463 13.8867C139.734 13.8021 139.988 13.7005 140.225 13.582C140.885 13.599 141.486 13.5397 142.027 13.4043C142.569 13.252 143.128 13.0404 143.703 12.7695C143.805 12.8203 143.906 12.8457 144.008 12.8457C144.092 12.8457 144.177 12.8372 144.262 12.8203L144.516 12.7695C144.719 12.6003 144.939 12.4902 145.176 12.4395C145.413 12.3887 145.65 12.3464 145.887 12.3125C146.124 12.2786 146.352 12.2448 146.572 12.2109C146.792 12.1602 146.987 12.0671 147.156 11.9316H147.258C147.664 11.9316 148.07 11.8639 148.477 11.7285C148.9 11.5931 149.306 11.5423 149.695 11.5762C150.034 11.39 150.347 11.2715 150.635 11.2207C150.923 11.1699 151.253 11.1445 151.625 11.1445C151.71 11.1445 151.811 11.1107 151.93 11.043C152.048 10.9583 152.192 10.916 152.361 10.916C152.395 10.916 152.421 10.9245 152.438 10.9414C152.471 10.9414 152.505 10.9414 152.539 10.9414C152.691 10.9414 152.793 10.8906 152.844 10.7891C152.911 10.6875 153.072 10.6367 153.326 10.6367C153.445 10.6367 153.555 10.6452 153.656 10.6621C153.758 10.6621 153.859 10.6621 153.961 10.6621C154.079 10.6621 154.156 10.6198 154.189 10.5352C154.223 10.4336 154.299 10.3913 154.418 10.4082C154.469 10.4759 154.553 10.5098 154.672 10.5098C154.79 10.4928 154.883 10.4844 154.951 10.4844C155.07 10.4844 155.137 10.5182 155.154 10.5859C155.425 10.4167 155.721 10.3066 156.043 10.2559C156.382 10.2051 156.703 10.1797 157.008 10.1797C157.126 10.1797 157.245 10.1882 157.363 10.2051C157.482 10.2051 157.609 10.2135 157.744 10.2305C157.896 10.1289 158.074 10.0781 158.277 10.0781C158.396 10.0781 158.582 10.1289 158.836 10.2305C159.107 10.332 159.386 10.4505 159.674 10.5859C159.962 10.7214 160.224 10.8652 160.461 11.0176C160.698 11.1699 160.842 11.2969 160.893 11.3984C160.926 11.4323 160.943 11.5085 160.943 11.627C160.96 11.7454 160.986 11.847 161.02 11.9316C161.104 12.1348 161.18 12.3294 161.248 12.5156C161.333 12.6849 161.375 12.8796 161.375 13.0996ZM158.557 13.3789C158.557 13.3451 158.548 13.3112 158.531 13.2773C158.531 13.2266 158.531 13.1842 158.531 13.1504C158.447 13.0488 158.328 12.9727 158.176 12.9219C158.04 12.8711 157.888 12.8288 157.719 12.7949C157.566 12.7611 157.406 12.7357 157.236 12.7188C157.084 12.6849 156.949 12.6426 156.83 12.5918C156.475 12.7103 156.085 12.7695 155.662 12.7695C155.273 12.7695 154.926 12.7103 154.621 12.5918C154.469 12.7441 154.274 12.8626 154.037 12.9473C153.8 13.0319 153.546 13.0996 153.275 13.1504C153.021 13.1842 152.759 13.2096 152.488 13.2266C152.234 13.2266 152.006 13.2266 151.803 13.2266C151.735 13.2266 151.617 13.2773 151.447 13.3789C151.278 13.4805 151.126 13.5312 150.99 13.5312C150.889 13.5312 150.796 13.4889 150.711 13.4043C150.559 13.5228 150.347 13.6243 150.076 13.709C149.805 13.7936 149.526 13.8698 149.238 13.9375C148.951 13.9883 148.654 14.0475 148.35 14.1152C148.062 14.1829 147.816 14.2507 147.613 14.3184C147.41 14.7585 147.3 15.2409 147.283 15.7656C147.266 16.2734 147.258 16.7728 147.258 17.2637C147.258 17.5514 147.241 17.8307 147.207 18.1016C147.173 18.3724 147.156 18.6517 147.156 18.9395C147.156 19.0749 147.165 19.2188 147.182 19.3711C147.199 19.5065 147.249 19.6419 147.334 19.7773C147.199 19.8789 147.105 20.0143 147.055 20.1836C147.021 20.3359 147.004 20.4883 147.004 20.6406C147.004 20.8268 147.021 20.9961 147.055 21.1484C147.089 21.3008 147.122 21.4447 147.156 21.5801C147.698 21.5293 148.189 21.4277 148.629 21.2754C149.086 21.123 149.509 20.9368 149.898 20.7168C150.305 20.4967 150.694 20.2428 151.066 19.9551C151.439 19.6673 151.828 19.3626 152.234 19.041C152.404 19.0072 152.539 18.9564 152.641 18.8887C152.759 18.821 152.903 18.7871 153.072 18.7871C153.14 18.5501 153.267 18.3893 153.453 18.3047C153.639 18.2031 153.783 18.0592 153.885 17.873C154.088 17.8223 154.257 17.7546 154.393 17.6699C154.545 17.5684 154.689 17.4753 154.824 17.3906C154.96 17.2891 155.104 17.196 155.256 17.1113C155.425 17.0267 155.611 16.9759 155.814 16.959C156.102 16.6204 156.398 16.2819 156.703 15.9434C157.025 15.6048 157.397 15.334 157.82 15.1309C157.888 14.9616 157.964 14.8177 158.049 14.6992C158.133 14.5638 158.21 14.4368 158.277 14.3184C158.362 14.1829 158.43 14.0475 158.48 13.9121C158.531 13.7598 158.557 13.582 158.557 13.3789ZM177.777 14.8516V14.9531C177.659 14.987 177.6 15.0716 177.6 15.207C177.413 15.2917 177.219 15.3594 177.016 15.4102C176.812 15.444 176.618 15.5033 176.432 15.5879C176.245 15.571 176.051 15.5625 175.848 15.5625C175.661 15.5456 175.475 15.5371 175.289 15.5371C174.781 15.5371 174.273 15.554 173.766 15.5879C173.258 15.6217 172.75 15.6217 172.242 15.5879C172.005 15.7233 171.743 15.8333 171.455 15.918C171.184 15.9857 170.922 16.0195 170.668 16.0195C170.465 16.0195 170.287 15.9941 170.135 15.9434C169.729 16.1465 169.28 16.3158 168.789 16.4512C168.315 16.5866 167.833 16.722 167.342 16.8574C166.851 16.9759 166.377 17.1198 165.92 17.2891C165.48 17.4414 165.09 17.6615 164.752 17.9492C164.718 18.1862 164.693 18.4232 164.676 18.6602C164.659 18.8802 164.65 19.1003 164.65 19.3203C164.65 19.5573 164.659 19.7773 164.676 19.9805C164.71 20.1836 164.769 20.3867 164.854 20.5898C164.938 20.6237 165.031 20.6491 165.133 20.666C165.251 20.6829 165.353 20.6914 165.438 20.6914C165.522 20.6914 165.607 20.6829 165.691 20.666C165.776 20.6322 165.835 20.5729 165.869 20.4883C166.123 20.4544 166.377 20.446 166.631 20.4629C166.885 20.4629 167.139 20.4629 167.393 20.4629C167.646 20.4629 167.892 20.4544 168.129 20.4375C168.383 20.4206 168.628 20.3783 168.865 20.3105C169.136 20.2428 169.398 20.2005 169.652 20.1836C169.923 20.1667 170.186 20.1497 170.439 20.1328C170.693 20.1159 170.956 20.0905 171.227 20.0566C171.497 20.0059 171.777 19.9128 172.064 19.7773C172.285 19.862 172.505 19.9043 172.725 19.9043C172.962 19.9043 173.19 19.9212 173.41 19.9551C173.529 20.0397 173.622 20.1328 173.689 20.2344C173.774 20.3359 173.816 20.4544 173.816 20.5898C173.816 20.8268 173.732 21.0638 173.562 21.3008C173.393 21.5378 173.258 21.7578 173.156 21.9609H172.877C172.471 21.9609 172.073 22.0202 171.684 22.1387C171.311 22.2402 170.93 22.3672 170.541 22.5195C170.169 22.6549 169.788 22.7819 169.398 22.9004C169.026 23.002 168.637 23.0527 168.23 23.0527C168.163 23.0527 168.12 23.0951 168.104 23.1797C168.104 23.2474 168.087 23.2982 168.053 23.332C167.968 23.3151 167.841 23.3066 167.672 23.3066C167.283 23.3066 166.91 23.349 166.555 23.4336C166.199 23.5182 165.835 23.5605 165.463 23.5605C165.361 23.5605 165.26 23.5605 165.158 23.5605C165.057 23.5436 164.955 23.5267 164.854 23.5098C164.769 23.6452 164.659 23.7383 164.523 23.7891C164.388 23.8229 164.261 23.8906 164.143 23.9922C164.092 24.1445 164.058 24.3307 164.041 24.5508C164.041 24.7708 164.033 24.9993 164.016 25.2363C164.016 25.4564 163.999 25.668 163.965 25.8711C163.931 26.0742 163.863 26.235 163.762 26.3535C163.779 26.4382 163.846 26.472 163.965 26.4551C164.083 26.4212 164.143 26.472 164.143 26.6074C164.143 26.7598 164.126 26.9206 164.092 27.0898C164.058 27.2591 164.041 27.4284 164.041 27.5977C164.041 27.9193 164.075 28.2747 164.143 28.6641C164.227 29.0365 164.346 29.3835 164.498 29.7051C164.667 30.0267 164.887 30.2975 165.158 30.5176C165.429 30.7207 165.768 30.8223 166.174 30.8223C166.445 30.8223 166.699 30.7715 166.936 30.6699C167.173 30.5684 167.367 30.3991 167.52 30.1621L167.646 30.1367C167.714 30.1367 167.773 30.1452 167.824 30.1621C167.892 30.179 167.96 30.1875 168.027 30.1875C168.129 30.1875 168.256 30.1283 168.408 30.0098C168.577 29.8743 168.755 29.722 168.941 29.5527C169.145 29.3835 169.348 29.2227 169.551 29.0703C169.754 28.901 169.949 28.7826 170.135 28.7148C170.253 28.4779 170.363 28.2409 170.465 28.0039C170.583 27.7669 170.753 27.5807 170.973 27.4453V26.709C171.142 26.5228 171.32 26.3535 171.506 26.2012C171.709 26.0488 171.861 25.8542 171.963 25.6172C172.048 25.651 172.124 25.6764 172.191 25.6934C172.276 25.7103 172.361 25.7188 172.445 25.7188C172.53 25.7188 172.615 25.7103 172.699 25.6934C172.801 25.6764 172.894 25.651 172.979 25.6172C173.114 25.8034 173.215 26.015 173.283 26.252C173.368 26.472 173.469 26.6836 173.588 26.8867C173.436 27.1914 173.258 27.5553 173.055 27.9785C172.852 28.4017 172.632 28.8249 172.395 29.248C172.158 29.6712 171.904 30.0775 171.633 30.4668C171.379 30.8392 171.125 31.127 170.871 31.3301C170.82 31.3809 170.71 31.4401 170.541 31.5078C170.355 31.6432 170.186 31.7702 170.033 31.8887C169.881 32.0241 169.737 32.1764 169.602 32.3457C169.111 32.498 168.637 32.7012 168.18 32.9551C167.74 33.209 167.299 33.4544 166.859 33.6914C166.656 33.6406 166.436 33.6152 166.199 33.6152C165.996 33.6152 165.793 33.6237 165.59 33.6406C165.387 33.6745 165.167 33.6914 164.93 33.6914C164.862 33.6068 164.76 33.5475 164.625 33.5137C164.507 33.4967 164.464 33.4121 164.498 33.2598C163.923 33.2259 163.457 33.0651 163.102 32.7773C162.746 32.5065 162.441 32.168 162.188 31.7617C161.951 31.3555 161.756 30.9154 161.604 30.4414C161.451 29.9674 161.29 29.5104 161.121 29.0703V28.9941C161.121 28.9095 161.155 28.8587 161.223 28.8418C161.29 28.8249 161.324 28.7741 161.324 28.6895C161.324 28.6556 161.316 28.6302 161.299 28.6133C161.248 28.4271 161.206 28.2663 161.172 28.1309C161.138 27.9954 161.121 27.8346 161.121 27.6484C161.121 27.3776 161.138 27.1152 161.172 26.8613C161.206 26.5905 161.223 26.3197 161.223 26.0488C161.223 25.778 161.189 25.541 161.121 25.3379C161.189 25.2533 161.248 25.1432 161.299 25.0078C161.333 24.8555 161.358 24.7031 161.375 24.5508C161.392 24.3984 161.4 24.2461 161.4 24.0938C161.417 23.9414 161.443 23.806 161.477 23.6875C161.409 23.5013 161.35 23.3405 161.299 23.2051C161.248 23.0527 161.223 22.875 161.223 22.6719V22.4941C161.392 22.2064 161.536 21.9102 161.654 21.6055C161.773 21.3008 161.9 20.9876 162.035 20.666V20.5898C162.035 20.099 162.018 19.6081 161.984 19.1172C161.951 18.6263 161.934 18.1354 161.934 17.6445V17.1621C161.934 16.9928 161.942 16.832 161.959 16.6797C162.094 16.612 162.196 16.5189 162.264 16.4004C162.331 16.2819 162.433 16.1888 162.568 16.1211H163.406L163.559 15.8672C163.609 15.7826 163.643 15.6895 163.66 15.5879C163.846 15.5371 164.024 15.4694 164.193 15.3848C164.38 15.2832 164.549 15.1816 164.701 15.0801C164.938 14.9447 165.15 14.8262 165.336 14.7246C165.539 14.6061 165.734 14.513 165.92 14.4453C166.123 14.3607 166.335 14.293 166.555 14.2422C166.775 14.1914 167.029 14.1491 167.316 14.1152C167.452 14.1152 167.536 14.0898 167.57 14.0391C167.621 13.9883 167.689 13.929 167.773 13.8613C167.977 13.8952 168.18 13.929 168.383 13.9629C168.586 13.9798 168.789 13.9883 168.992 13.9883C169.398 13.9883 169.779 13.9121 170.135 13.7598C170.643 13.7598 171.142 13.7513 171.633 13.7344C172.141 13.7174 172.648 13.709 173.156 13.709C173.596 13.709 174.036 13.7259 174.477 13.7598C174.917 13.7936 175.348 13.8529 175.771 13.9375C175.924 13.8867 176.093 13.8613 176.279 13.8613C176.482 13.8613 176.686 13.8867 176.889 13.9375C177.109 13.9714 177.32 13.9714 177.523 13.9375C177.54 14.1237 177.583 14.2845 177.65 14.4199C177.735 14.5384 177.777 14.6823 177.777 14.8516ZM192.631 14.8516V14.9531C192.512 14.987 192.453 15.0716 192.453 15.207C192.267 15.2917 192.072 15.3594 191.869 15.4102C191.666 15.444 191.471 15.5033 191.285 15.5879C191.099 15.571 190.904 15.5625 190.701 15.5625C190.515 15.5456 190.329 15.5371 190.143 15.5371C189.635 15.5371 189.127 15.554 188.619 15.5879C188.111 15.6217 187.604 15.6217 187.096 15.5879C186.859 15.7233 186.596 15.8333 186.309 15.918C186.038 15.9857 185.775 16.0195 185.521 16.0195C185.318 16.0195 185.141 15.9941 184.988 15.9434C184.582 16.1465 184.133 16.3158 183.643 16.4512C183.169 16.5866 182.686 16.722 182.195 16.8574C181.704 16.9759 181.23 17.1198 180.773 17.2891C180.333 17.4414 179.944 17.6615 179.605 17.9492C179.572 18.1862 179.546 18.4232 179.529 18.6602C179.512 18.8802 179.504 19.1003 179.504 19.3203C179.504 19.5573 179.512 19.7773 179.529 19.9805C179.563 20.1836 179.622 20.3867 179.707 20.5898C179.792 20.6237 179.885 20.6491 179.986 20.666C180.105 20.6829 180.206 20.6914 180.291 20.6914C180.376 20.6914 180.46 20.6829 180.545 20.666C180.63 20.6322 180.689 20.5729 180.723 20.4883C180.977 20.4544 181.23 20.446 181.484 20.4629C181.738 20.4629 181.992 20.4629 182.246 20.4629C182.5 20.4629 182.745 20.4544 182.982 20.4375C183.236 20.4206 183.482 20.3783 183.719 20.3105C183.99 20.2428 184.252 20.2005 184.506 20.1836C184.777 20.1667 185.039 20.1497 185.293 20.1328C185.547 20.1159 185.809 20.0905 186.08 20.0566C186.351 20.0059 186.63 19.9128 186.918 19.7773C187.138 19.862 187.358 19.9043 187.578 19.9043C187.815 19.9043 188.044 19.9212 188.264 19.9551C188.382 20.0397 188.475 20.1328 188.543 20.2344C188.628 20.3359 188.67 20.4544 188.67 20.5898C188.67 20.8268 188.585 21.0638 188.416 21.3008C188.247 21.5378 188.111 21.7578 188.01 21.9609H187.73C187.324 21.9609 186.926 22.0202 186.537 22.1387C186.165 22.2402 185.784 22.3672 185.395 22.5195C185.022 22.6549 184.641 22.7819 184.252 22.9004C183.88 23.002 183.49 23.0527 183.084 23.0527C183.016 23.0527 182.974 23.0951 182.957 23.1797C182.957 23.2474 182.94 23.2982 182.906 23.332C182.822 23.3151 182.695 23.3066 182.525 23.3066C182.136 23.3066 181.764 23.349 181.408 23.4336C181.053 23.5182 180.689 23.5605 180.316 23.5605C180.215 23.5605 180.113 23.5605 180.012 23.5605C179.91 23.5436 179.809 23.5267 179.707 23.5098C179.622 23.6452 179.512 23.7383 179.377 23.7891C179.242 23.8229 179.115 23.8906 178.996 23.9922C178.945 24.1445 178.911 24.3307 178.895 24.5508C178.895 24.7708 178.886 24.9993 178.869 25.2363C178.869 25.4564 178.852 25.668 178.818 25.8711C178.785 26.0742 178.717 26.235 178.615 26.3535C178.632 26.4382 178.7 26.472 178.818 26.4551C178.937 26.4212 178.996 26.472 178.996 26.6074C178.996 26.7598 178.979 26.9206 178.945 27.0898C178.911 27.2591 178.895 27.4284 178.895 27.5977C178.895 27.9193 178.928 28.2747 178.996 28.6641C179.081 29.0365 179.199 29.3835 179.352 29.7051C179.521 30.0267 179.741 30.2975 180.012 30.5176C180.283 30.7207 180.621 30.8223 181.027 30.8223C181.298 30.8223 181.552 30.7715 181.789 30.6699C182.026 30.5684 182.221 30.3991 182.373 30.1621L182.5 30.1367C182.568 30.1367 182.627 30.1452 182.678 30.1621C182.745 30.179 182.813 30.1875 182.881 30.1875C182.982 30.1875 183.109 30.1283 183.262 30.0098C183.431 29.8743 183.609 29.722 183.795 29.5527C183.998 29.3835 184.201 29.2227 184.404 29.0703C184.607 28.901 184.802 28.7826 184.988 28.7148C185.107 28.4779 185.217 28.2409 185.318 28.0039C185.437 27.7669 185.606 27.5807 185.826 27.4453V26.709C185.995 26.5228 186.173 26.3535 186.359 26.2012C186.562 26.0488 186.715 25.8542 186.816 25.6172C186.901 25.651 186.977 25.6764 187.045 25.6934C187.13 25.7103 187.214 25.7188 187.299 25.7188C187.383 25.7188 187.468 25.7103 187.553 25.6934C187.654 25.6764 187.747 25.651 187.832 25.6172C187.967 25.8034 188.069 26.015 188.137 26.252C188.221 26.472 188.323 26.6836 188.441 26.8867C188.289 27.1914 188.111 27.5553 187.908 27.9785C187.705 28.4017 187.485 28.8249 187.248 29.248C187.011 29.6712 186.757 30.0775 186.486 30.4668C186.232 30.8392 185.979 31.127 185.725 31.3301C185.674 31.3809 185.564 31.4401 185.395 31.5078C185.208 31.6432 185.039 31.7702 184.887 31.8887C184.734 32.0241 184.59 32.1764 184.455 32.3457C183.964 32.498 183.49 32.7012 183.033 32.9551C182.593 33.209 182.153 33.4544 181.713 33.6914C181.51 33.6406 181.29 33.6152 181.053 33.6152C180.85 33.6152 180.646 33.6237 180.443 33.6406C180.24 33.6745 180.02 33.6914 179.783 33.6914C179.715 33.6068 179.614 33.5475 179.479 33.5137C179.36 33.4967 179.318 33.4121 179.352 33.2598C178.776 33.2259 178.311 33.0651 177.955 32.7773C177.6 32.5065 177.295 32.168 177.041 31.7617C176.804 31.3555 176.609 30.9154 176.457 30.4414C176.305 29.9674 176.144 29.5104 175.975 29.0703V28.9941C175.975 28.9095 176.008 28.8587 176.076 28.8418C176.144 28.8249 176.178 28.7741 176.178 28.6895C176.178 28.6556 176.169 28.6302 176.152 28.6133C176.102 28.4271 176.059 28.2663 176.025 28.1309C175.992 27.9954 175.975 27.8346 175.975 27.6484C175.975 27.3776 175.992 27.1152 176.025 26.8613C176.059 26.5905 176.076 26.3197 176.076 26.0488C176.076 25.778 176.042 25.541 175.975 25.3379C176.042 25.2533 176.102 25.1432 176.152 25.0078C176.186 24.8555 176.212 24.7031 176.229 24.5508C176.245 24.3984 176.254 24.2461 176.254 24.0938C176.271 23.9414 176.296 23.806 176.33 23.6875C176.262 23.5013 176.203 23.3405 176.152 23.2051C176.102 23.0527 176.076 22.875 176.076 22.6719V22.4941C176.245 22.2064 176.389 21.9102 176.508 21.6055C176.626 21.3008 176.753 20.9876 176.889 20.666V20.5898C176.889 20.099 176.872 19.6081 176.838 19.1172C176.804 18.6263 176.787 18.1354 176.787 17.6445V17.1621C176.787 16.9928 176.796 16.832 176.812 16.6797C176.948 16.612 177.049 16.5189 177.117 16.4004C177.185 16.2819 177.286 16.1888 177.422 16.1211H178.26L178.412 15.8672C178.463 15.7826 178.497 15.6895 178.514 15.5879C178.7 15.5371 178.878 15.4694 179.047 15.3848C179.233 15.2832 179.402 15.1816 179.555 15.0801C179.792 14.9447 180.003 14.8262 180.189 14.7246C180.393 14.6061 180.587 14.513 180.773 14.4453C180.977 14.3607 181.188 14.293 181.408 14.2422C181.628 14.1914 181.882 14.1491 182.17 14.1152C182.305 14.1152 182.39 14.0898 182.424 14.0391C182.475 13.9883 182.542 13.929 182.627 13.8613C182.83 13.8952 183.033 13.929 183.236 13.9629C183.439 13.9798 183.643 13.9883 183.846 13.9883C184.252 13.9883 184.633 13.9121 184.988 13.7598C185.496 13.7598 185.995 13.7513 186.486 13.7344C186.994 13.7174 187.502 13.709 188.01 13.709C188.45 13.709 188.89 13.7259 189.33 13.7598C189.77 13.7936 190.202 13.8529 190.625 13.9375C190.777 13.8867 190.947 13.8613 191.133 13.8613C191.336 13.8613 191.539 13.8867 191.742 13.9375C191.962 13.9714 192.174 13.9714 192.377 13.9375C192.394 14.1237 192.436 14.2845 192.504 14.4199C192.589 14.5384 192.631 14.6823 192.631 14.8516ZM208.119 14.3184C208.085 14.5215 208.035 14.6992 207.967 14.8516C207.916 14.987 207.908 15.1732 207.941 15.4102C207.772 15.4271 207.637 15.4863 207.535 15.5879C207.451 15.6725 207.374 15.7741 207.307 15.8926C207.256 16.0111 207.197 16.138 207.129 16.2734C207.078 16.3919 207.01 16.502 206.926 16.6035C207.061 17.2129 207.137 17.8307 207.154 18.457C207.171 19.0833 207.214 19.7012 207.281 20.3105C207.366 21.0892 207.493 21.8594 207.662 22.6211C207.848 23.3659 207.941 24.1276 207.941 24.9062C207.941 25.1432 207.933 25.3633 207.916 25.5664C207.916 25.7695 207.916 25.9811 207.916 26.2012C207.916 26.3366 207.916 26.4805 207.916 26.6328C207.933 26.7682 207.941 26.9036 207.941 27.0391C207.941 27.5299 207.874 28.0208 207.738 28.5117C207.62 29.0026 207.527 29.4935 207.459 29.9844C207.256 30.1706 207.078 30.3737 206.926 30.5938C206.79 30.8138 206.646 31.0169 206.494 31.2031C206.342 31.3893 206.164 31.5501 205.961 31.6855C205.758 31.8379 205.504 31.9395 205.199 31.9902C205.148 32.1595 205.047 32.2865 204.895 32.3711C204.759 32.4557 204.641 32.5742 204.539 32.7266H204.488C204.065 32.7266 203.701 32.6673 203.396 32.5488C203.092 32.4303 202.804 32.2949 202.533 32.1426C202.279 31.9902 202.017 31.8294 201.746 31.6602C201.475 31.4909 201.162 31.3555 200.807 31.2539C200.333 30.8646 199.901 30.4414 199.512 29.9844C199.122 29.5104 198.682 29.0872 198.191 28.7148C198.073 28.3763 197.912 28.097 197.709 27.877C197.523 27.6569 197.337 27.403 197.15 27.1152C197.066 26.9967 196.998 26.8867 196.947 26.7852C196.913 26.6836 196.863 26.5651 196.795 26.4297C196.744 26.2943 196.66 26.2012 196.541 26.1504C196.439 26.0996 196.346 26.0404 196.262 25.9727C196.126 25.4479 195.932 24.9655 195.678 24.5254C195.424 24.0853 195.128 23.6621 194.789 23.2559C194.688 23.4421 194.603 23.6452 194.535 23.8652C194.484 24.0684 194.434 24.2799 194.383 24.5C194.332 24.7031 194.264 24.9147 194.18 25.1348C194.112 25.3379 194.019 25.5241 193.9 25.6934V25.7695C193.9 25.8542 193.934 25.9049 194.002 25.9219C194.07 25.9388 194.104 25.9896 194.104 26.0742C194.104 26.0911 194.095 26.1081 194.078 26.125C194.078 26.1419 194.078 26.1589 194.078 26.1758C193.993 26.2435 193.926 26.3281 193.875 26.4297C193.841 26.5312 193.757 26.5905 193.621 26.6074C193.638 26.6921 193.646 26.7767 193.646 26.8613V27.0898C193.646 27.5807 193.587 28.0716 193.469 28.5625C193.367 29.0534 193.316 29.5527 193.316 30.0605V30.3906C193.316 30.5091 193.325 30.6191 193.342 30.7207C193.376 30.8223 193.426 30.9238 193.494 31.0254C193.562 31.127 193.596 31.2201 193.596 31.3047C193.596 31.4232 193.545 31.5332 193.443 31.6348C193.562 31.7194 193.697 31.8125 193.85 31.9141C194.002 32.0156 194.137 32.1257 194.256 32.2441C194.391 32.3796 194.501 32.515 194.586 32.6504C194.671 32.8027 194.713 32.9635 194.713 33.1328C194.713 33.4206 194.62 33.6237 194.434 33.7422C194.247 33.8607 194.019 33.9538 193.748 34.0215C193.494 34.0892 193.223 34.1484 192.936 34.1992C192.665 34.2669 192.436 34.377 192.25 34.5293H192.174C191.971 34.5293 191.818 34.4701 191.717 34.3516C191.615 34.2331 191.463 34.1738 191.26 34.1738C190.938 33.6491 190.718 33.0566 190.6 32.3965C190.481 31.7533 190.422 31.1354 190.422 30.543C190.422 29.8151 190.49 29.0872 190.625 28.3594C190.743 27.6315 190.896 26.9121 191.082 26.2012C191.251 25.4902 191.438 24.7878 191.641 24.0938C191.861 23.3828 192.064 22.6719 192.25 21.9609L192.275 21.8848C192.275 21.8001 192.25 21.7409 192.199 21.707C192.165 21.6732 192.148 21.6224 192.148 21.5547C192.148 21.5208 192.157 21.5039 192.174 21.5039C192.225 21.3346 192.275 21.1738 192.326 21.0215C192.394 20.8691 192.445 20.6999 192.479 20.5137C192.58 20.0397 192.648 19.5573 192.682 19.0664C192.732 18.5586 192.758 18.0592 192.758 17.5684C192.775 17.0775 192.792 16.5866 192.809 16.0957C192.842 15.5879 192.902 15.0885 192.986 14.5977C193.122 14.4622 193.249 14.3184 193.367 14.166C193.486 14.0137 193.638 13.8783 193.824 13.7598C194.163 13.7767 194.501 13.8275 194.84 13.9121C195.178 13.9967 195.5 14.1322 195.805 14.3184C196.008 15.0462 196.143 15.7741 196.211 16.502C196.296 17.2298 196.431 17.9577 196.617 18.6855V18.7617C196.617 18.8464 196.66 18.8887 196.744 18.8887C196.846 18.8717 196.922 18.8971 196.973 18.9648C196.939 19.0156 196.913 19.0749 196.896 19.1426C196.896 19.2103 196.896 19.278 196.896 19.3457V19.7773C196.93 19.9128 196.973 20.0566 197.023 20.209C197.074 20.3613 197.184 20.4544 197.354 20.4883C197.438 21.0299 197.565 21.5293 197.734 21.9863C197.904 22.4434 198.098 22.8835 198.318 23.3066C198.538 23.7298 198.775 24.153 199.029 24.5762C199.283 24.9824 199.546 25.4141 199.816 25.8711C200.24 26.1927 200.604 26.5651 200.908 26.9883C201.213 27.3945 201.518 27.7923 201.822 28.1816C202.144 28.554 202.499 28.8841 202.889 29.1719C203.295 29.4596 203.82 29.6374 204.463 29.7051C204.548 29.6374 204.607 29.5443 204.641 29.4258L204.768 29.0703C204.818 28.9518 204.869 28.8503 204.92 28.7656C204.988 28.6641 205.081 28.5879 205.199 28.5371C205.233 28.0632 205.267 27.5807 205.301 27.0898C205.352 26.599 205.462 26.1335 205.631 25.6934C205.546 25.541 205.504 25.3548 205.504 25.1348C205.504 24.9655 205.512 24.8047 205.529 24.6523C205.563 24.5 205.58 24.3477 205.58 24.1953C205.58 23.8737 205.512 23.6113 205.377 23.4082C205.377 23.2897 205.385 23.1712 205.402 23.0527C205.419 22.9173 205.47 22.7904 205.555 22.6719C205.419 22.3333 205.309 21.9779 205.225 21.6055C205.157 21.2331 205.123 20.8522 205.123 20.4629C205.123 20.2428 205.148 20.0143 205.199 19.7773C205.098 19.5234 205.03 19.2272 204.996 18.8887L204.895 17.8477C204.861 17.4922 204.81 17.1621 204.742 16.8574C204.674 16.5527 204.548 16.3073 204.361 16.1211C204.463 15.9688 204.514 15.791 204.514 15.5879C204.514 15.2493 204.463 14.9277 204.361 14.623C204.26 14.3184 204.209 13.9967 204.209 13.6582C204.209 13.4212 204.26 13.1842 204.361 12.9473C204.734 12.9642 205.098 13.0065 205.453 13.0742C205.826 13.125 206.189 13.1504 206.545 13.1504C206.646 13.2858 206.765 13.3958 206.9 13.4805C207.036 13.5651 207.18 13.6497 207.332 13.7344C207.484 13.8021 207.628 13.8783 207.764 13.9629C207.916 14.0475 208.035 14.166 208.119 14.3184Z" fill="#FAFDFB"/>
<circle cx="19" cy="19" r="19" fill="#FAFDFB"/>
</svg>
